{"title":"Street Racer.2008.DVDRip.XViD.SWESUB.avi","uid":5518394,"size":738290988,"categoryP":"video","categoryS":"movies","magnet":"?xt=urn:btih:ccf6b0c09e84aecb2d07c7cb7ec00c1f1437f077&amp;dn=Street+Racer.2008.DVDRip.XViD.SWESUB.avi&amp;tr=udp%3A%2F%2Ftracker.openbittorrent.com%3A80&amp;tr=udp%3A%2F%2Fopen.demonii.com%3A1337&amp;tr=udp%3A%2F%2Ftracker.coppersurfer.tk%3A6969&amp;tr=udp%3A%2F%2Fexodus.desync.com%3A6969","seeders":1,"leechers":0,"uploader":"Zen_Bud","files":-1,"time":1272358136,"description":"General\nComplete name                    : Street Racer.avi\nFormat                           : AVI\nFile size                        : 704 MiB\nDuration                         : 1h 22mn\nOverall bit rate                 : 1 195 Kbps\n\nVideo\nID                               : 0\nFormat                           : MPEG-4 Visual\nCodec ID/Hint                    : XviD\nDuration                         : 1h 22mn\nBit rate                         : 1 054 Kbps\nWidth                            : 720 pixels\nHeight                           : 576 pixels\nDisplay aspect ratio             : 16:9\nResolution                       : 8 bits\nColorimetry                      : 4:2:0\nScan type                        : Progressive\nBits/(Pixel*Frame)               : 0.102\nStream size                      : 621 MiB (88%)\nWriting library                  : XviD 1.1.2 (UTC 2006-11-01)\n\nAudio\nID                               : 1\nFormat                           : MPEG Audio\nFormat version                   : Version 1\nFormat profile                   : Layer 3\nMode                             : Joint stereo\nCodec ID                         : 55\nCodec ID/Hint                    : MP3\nDuration                         : 1h 22mn\nBit rate mode                    : Constant\nBit rate                         : 128 Kbps\nChannel(s)                       : 2 channels\nSampling rate                    : 48.0 KHz\nStream size                      : 75.4 MiB (11%)\nAlignment                        : Split accross interleaves\nInterleave, duration             : 24 ms (0.60 video frame)\nWriting library                  : LAME3.98\n\n","torrent":{"xt":"urn:btih:ccf6b0c09e84aecb2d07c7cb7ec00c1f1437f077","amp;dn":"Street+Racer.2008.DVDRip.XViD.SWESUB.avi","amp;tr":["udp%3A%2F%2Ftracker.openbittorrent.com%3A80","udp%3A%2F%2Fopen.demonii.com%3A1337","udp%3A%2F%2Ftracker.coppersurfer.tk%3A6969","udp%3A%2F%2Fexodus.desync.com%3A6969"],"infoHash":"ccf6b0c09e84aecb2d07c7cb7ec00c1f1437f077","infoHashBuffer":{"type":"Buffer","data":[204,246,176,192,158,132,174,203,45,7,199,203,126,192,12,31,20,55,240,119]},"announce":[],"urlList":[]}}